<?xml version="1.0" standalone="no"?>
<!DOCTYPE svg PUBLIC "-//W3C//DTD SVG 20010904//EN"
 "http://www.w3.org/TR/2001/REC-SVG-20010904/DTD/svg10.dtd">
<svg version="1.0" xmlns="http://www.w3.org/2000/svg"
 width="500.000000pt" height="500.000000pt" viewBox="0 0 500.000000 500.000000"
 preserveAspectRatio="xMidYMid meet">

<g transform="translate(0.000000,500.000000) scale(0.100000,-0.100000)"
fill="#000000" stroke="none">
<path d="M1505 3535 c-160 -35 -312 -119 -425 -234 -56 -57 -158 -219 -189
-301 -49 -126 -64 -223 -58 -378 6 -169 27 -255 102 -407 65 -132 80 -154 97
-137 9 9 7 13 -6 18 -14 5 -16 14 -11 44 5 32 0 52 -34 122 -58 120 -93 261
-94 378 -1 101 11 140 42 140 35 0 53 -48 51 -132 -2 -80 1 -103 10 -106 6 -2
8 -8 4 -13 -3 -5 0 -9 7 -9 7 0 10 -3 7 -6 -3 -3 10 -41 29 -85 34 -80 38
-112 33 -274 -1 -58 1 -66 25 -75 31 -12 45 -35 15 -25 -30 9 -87 -2 -93 -19
-3 -8 12 -33 34 -57 29 -31 39 -38 39 -24 0 10 3 16 6 12 3 -3 3 -14 0 -24 -5
-15 -17 -18 -73 -18 l-68 0 -22 -45 c-11 -25 -34 -81 -49 -126 -24 -73 -26
-84 -12 -97 21 -21 214 -70 408 -103 130 -22 593 -31 699 -14 42 7 79 15 83
17 4 2 38 6 75 8 69 3 294 49 326 66 21 12 21 13 2 49 -9 17 -13 30 -9 30 4 0
2 6 -3 13 -6 6 -23 49 -38 95 -32 98 -51 115 -121 110 -60 -4 -67 13 -18 42
21 12 34 25 28 28 -5 4 -9 13 -9 21 0 20 -64 40 -94 29 -45 -16 -34 1 13 22
60 25 64 25 68 -2 2 -18 11 -10 44 42 66 105 92 154 86 169 -3 8 0 11 7 7 8
-5 8 0 1 19 -7 17 -7 24 0 20 13 -8 13 1 -1 27 -9 17 -9 20 2 16 11 -4 14 7
14 46 0 28 3 98 6 156 5 85 5 95 -3 53 l-11 -51 -32 15 -33 16 24 51 c39 84
30 146 -31 203 -29 26 -35 39 -35 73 0 23 -6 53 -13 68 -17 37 -16 77 3 77 16
0 88 -136 89 -168 1 -10 5 -16 10 -13 5 4 7 -3 4 -14 -3 -11 -1 -20 5 -20 6 0
8 -10 6 -22 -4 -21 -4 -21 5 -3 4 11 7 23 5 26 -4 7 -17 146 -16 171 0 10 -3
20 -8 23 -5 3 -18 26 -29 50 -10 24 -38 69 -62 101 -125 169 -306 287 -508
330 -81 17 -226 16 -306 -1z m310 -77 c66 -14 145 -45 169 -66 10 -9 20 -16
22 -14 15 11 105 -51 172 -116 71 -70 116 -126 95 -120 -17 5 -73 -22 -73 -35
0 -9 -13 -16 -34 -19 -28 -3 -41 2 -73 32 -21 20 -45 52 -55 72 -17 36 -67 68
-107 68 -12 0 -39 13 -61 29 -52 38 -103 46 -157 27 -38 -13 -47 -13 -78 -1
-69 30 -148 15 -212 -39 -23 -19 -39 -25 -53 -21 -27 8 -131 -5 -124 -16 2 -5
-2 -22 -11 -38 -8 -17 -15 -38 -14 -48 0 -11 6 -6 15 15 16 37 67 72 104 72
14 0 38 -7 54 -15 36 -19 38 -19 32 3 -12 40 50 82 124 82 57 0 104 -20 82
-34 -7 -4 -12 -11 -12 -16 0 -5 16 2 36 15 67 45 149 45 203 0 16 -14 39 -25
50 -25 78 0 154 -88 79 -91 -20 -1 -25 -3 -13 -6 11 -2 30 -6 42 -8 31 -7 84
-54 99 -90 11 -25 13 -27 14 -8 0 26 27 37 67 27 60 -14 103 -79 103 -154 0
-34 6 -46 35 -71 61 -54 65 -147 10 -215 l-24 -29 -1 30 c-1 17 -7 44 -15 60
l-15 30 6 -41 c7 -50 -13 -101 -52 -138 -36 -33 -20 -34 28 -1 l38 25 6 -26
c8 -33 -10 -96 -35 -118 -11 -10 -37 -24 -58 -32 -21 -7 -30 -13 -20 -14 46
-1 21 -73 -40 -115 -29 -19 -50 -25 -95 -25 -31 0 -84 -7 -119 -16 -96 -25
-203 0 -258 60 -31 34 -23 33 42 -4 131 -74 285 -7 299 129 3 33 1 35 -39 45
-23 6 -45 14 -48 18 -4 3 1 40 10 81 14 62 14 79 4 99 -8 15 -12 58 -10 124 3
126 -10 175 -60 217 -31 28 -36 36 -31 65 3 24 -4 51 -29 100 -18 37 -34 69
-36 71 -2 2 -20 -9 -41 -25 -58 -47 -61 -48 -165 -54 -92 -6 -99 -8 -129 -37
-21 -22 -31 -41 -32 -65 -1 -22 -11 -44 -29 -63 -44 -47 -50 -71 -49 -207 0
-71 -4 -128 -9 -128 -14 0 -11 -53 7 -117 9 -32 16 -62 16 -68 3 -32 -4 -45
-22 -45 -19 0 -20 -2 -5 -30 20 -39 20 -100 -1 -100 -70 0 -160 53 -190 112
-21 41 -7 49 71 43 46 -4 53 -3 31 4 -34 12 -62 36 -88 76 l-20 30 7 -30 c4
-16 7 -34 8 -40 3 -17 -50 -17 -83 0 -37 19 -69 83 -70 137 0 37 13 57 25 38
3 -5 11 -10 16 -10 5 0 2 12 -8 26 -34 53 -16 189 19 141 11 -15 13 -9 13 37
0 39 5 60 19 75 28 31 43 26 65 -24 11 -25 21 -45 23 -45 2 0 2 20 0 45 -5 59
13 102 52 126 27 16 28 19 10 19 -13 0 -36 -16 -53 -36 -41 -47 -61 -34 -61
39 0 70 31 131 82 161 25 15 35 26 26 29 -7 3 1 8 19 12 31 7 75 52 79 81 2
11 -4 13 -19 9 -19 -5 -20 -5 -4 5 9 6 17 16 17 22 0 6 -7 5 -17 -3 -16 -13
-17 -12 -4 3 11 14 17 15 35 6 18 -10 19 -9 9 4 -11 12 -4 18 40 36 57 24 161
52 189 52 10 0 21 -7 25 -15 5 -14 8 -14 22 -1 30 26 87 27 196 4z m-615 -233
c-7 -8 -17 -15 -23 -15 -6 0 -2 7 9 15 25 19 30 19 14 0z m604 -82 c20 -58 20
-86 2 -122 -20 -37 -58 -53 -141 -58 -83 -6 -143 8 -185 43 -35 30 -38 61 -10
92 24 26 40 30 143 35 67 4 84 8 120 34 23 17 45 28 49 27 3 -2 13 -25 22 -51z
m-344 -170 c0 -4 -12 -19 -26 -34 -21 -22 -28 -43 -35 -101 -5 -40 -12 -89
-15 -108 -6 -30 -8 -32 -15 -15 -11 29 -11 144 1 186 12 43 44 79 70 79 11 0
20 -3 20 -7z m414 -12 c28 -31 45 -91 45 -156 0 -56 -1 -58 -13 -35 -7 14 -16
49 -19 79 -4 29 -15 69 -27 88 -11 19 -20 36 -20 39 0 10 18 2 34 -15z m-330
-26 c62 -19 98 -19 194 1 l77 16 22 -26 c12 -14 25 -43 28 -64 3 -20 10 -55
16 -77 23 -90 53 -80 -235 -80 -191 0 -256 3 -256 12 0 6 5 15 10 18 6 3 10
30 10 58 0 70 16 123 43 142 26 18 30 18 91 0z m344 -262 c2 -7 10 -13 17 -13
7 0 -4 -18 -24 -40 -35 -39 -39 -40 -99 -40 -61 0 -63 1 -83 35 -18 30 -26 35
-60 35 -32 0 -41 -5 -53 -29 -19 -35 -33 -41 -102 -41 -52 0 -56 2 -75 35 -12
19 -26 35 -31 35 -6 0 0 9 13 20 23 19 37 20 258 17 177 -1 235 -5 239 -14z
m62 -57 c0 -14 -4 -28 -10 -31 -6 -4 -10 7 -10 24 0 17 5 31 10 31 6 0 10 -11
10 -24z m-290 -53 c0 -71 -12 -106 -29 -88 -5 6 -11 24 -14 40 -4 27 -4 26 -6
-7 -1 -37 -21 -55 -21 -20 0 12 -4 10 -13 -8 -7 -14 -22 -26 -34 -28 -35 -5
-91 25 -113 60 -28 47 -26 59 8 46 17 -7 51 -8 85 -4 53 7 59 10 74 42 12 24
23 34 40 34 22 0 23 -4 23 -67z m-292 6 c2 -49 -11 -38 -23 20 -5 26 -4 32 6
29 9 -3 15 -22 17 -49z m388 -13 c48 -6 102 1 122 17 19 15 4 -40 -20 -76 -24
-34 -48 -47 -87 -47 -43 0 -61 9 -62 34 0 11 -3 15 -6 9 -12 -32 -23 -7 -23
55 1 66 1 67 17 41 12 -20 27 -28 59 -33z m-291 -108 c43 -25 33 -38 -32 -38
l-43 0 0 73 0 72 20 -43 c12 -26 33 -50 55 -64z m451 -22 c-5 -20 -13 -26 -34
-26 -15 1 -37 6 -49 13 -22 12 -22 12 12 40 18 15 40 43 47 64 l13 37 9 -51
c5 -29 6 -63 2 -77z m94 -17 c0 -20 -28 -75 -45 -89 -17 -14 -18 -13 -12 32 4
28 2 50 -3 53 -6 4 -8 10 -6 14 7 10 66 1 66 -10z m-560 -105 c47 -18 82 -17
130 2 l39 16 49 -50 c60 -61 118 -92 188 -99 30 -3 54 -8 54 -10 0 -15 -34
-65 -60 -87 -43 -36 -100 -49 -206 -49 -80 -1 -99 3 -148 27 -70 34 -102 80
-117 164 -13 75 -6 117 19 107 9 -4 33 -14 52 -21z m-237 -16 c29 -12 58 -28
66 -36 8 -8 24 -11 42 -7 25 6 29 3 34 -22 25 -130 49 -169 130 -212 44 -23
64 -26 161 -29 139 -4 182 7 239 61 34 33 46 53 51 85 8 53 39 72 139 83 39 5
79 9 90 11 17 3 20 -3 21 -34 1 -20 9 -49 18 -64 21 -31 14 -40 -39 -48 -51
-7 -133 -32 -165 -51 -32 -18 -26 -18 33 0 26 8 47 11 47 7 0 -4 5 0 10 8 9
13 11 13 20 0 15 -23 13 -27 -17 -38 -16 -6 -45 -17 -66 -26 -37 -16 -37 -16
-48 7 l-11 24 -71 -20 c-40 -10 -97 -30 -128 -43 -98 -42 -136 -42 -222 0 -42
20 -83 36 -93 36 -9 0 -74 23 -143 51 -69 28 -136 51 -148 51 -18 0 -22 8 -28
55 -6 50 1 147 12 166 6 10 8 10 66 -15z m693 -4 c-22 -16 -113 -19 -135 -5
-10 7 -2 8 25 5 21 -3 57 1 79 8 46 16 59 13 31 -8z m-619 -256 c47 -17 52
-22 43 -39 -12 -22 -12 -22 -43 -8 -17 8 -23 17 -20 30 4 15 0 19 -20 19 -14
0 -27 -6 -30 -12 -3 -10 -8 -10 -16 -2 -17 15 -2 47 18 39 9 -4 40 -16 68 -27z
m288 -138 c-28 -12 -37 -12 -30 0 3 6 16 10 28 9 21 0 21 -1 2 -9z m189 -5
c13 -10 24 -11 37 -5 23 13 26 13 33 -6 9 -23 -52 -44 -129 -44 -45 0 -65 4
-65 13 0 8 -3 8 -9 -2 -5 -8 -16 -11 -26 -7 -24 9 -16 15 57 41 76 28 78 28
102 10z m-246 -5 c15 0 15 -2 2 -10 -23 -15 -50 -12 -50 6 0 11 5 14 16 10 9
-3 23 -6 32 -6z m740 -14 c-57 -18 -53 -22 20 -19 46 2 62 0 52 -7 -12 -8 -12
-10 5 -10 17 0 18 -2 5 -11 -11 -8 -8 -9 15 -5 l30 6 -28 -15 c-21 -12 -27
-22 -25 -44 2 -23 6 -27 23 -24 18 4 18 3 3 -7 -26 -16 -22 -30 10 -31 l27 -1
-29 -10 c-21 -8 -25 -13 -15 -19 11 -7 9 -9 -6 -9 -17 0 -17 -2 -5 -10 12 -8
11 -10 -5 -10 -12 0 -25 -4 -30 -9 -6 -5 -59 -18 -120 -30 -345 -63 -695 -60
-1063 9 -57 11 -105 20 -108 20 -3 0 -2 5 1 10 3 6 -1 10 -11 10 -14 0 -15 2
-3 17 10 11 10 14 2 9 -7 -4 -13 -2 -13 3 0 6 5 11 10 11 6 0 10 4 10 10 0 5
-8 7 -17 3 -10 -3 -15 -3 -11 2 4 4 3 16 -3 26 -6 11 -6 19 0 19 5 0 8 16 7
35 -1 19 2 35 7 35 4 0 5 5 2 10 -3 6 -2 10 4 10 5 0 12 -6 15 -12 4 -7 4 -3
2 10 -2 12 1 22 7 23 83 5 116 3 199 -12 158 -29 324 -42 483 -38 83 2 184 4
225 4 41 0 77 3 80 7 3 3 32 8 65 10 33 2 62 6 65 9 6 7 119 37 140 37 8 0 -2
-5 -22 -12z m-268 -11 c-14 -8 -34 -14 -45 -14 -13 0 -8 5 15 14 46 18 61 18
30 0z"/>
<path d="M1893 3374 c-36 -18 -42 -39 -15 -52 24 -12 76 18 79 46 3 27 -18 29
-64 6z"/>
<path d="M1970 3360 c0 -5 11 -9 25 -8 14 1 25 6 25 10 0 4 -11 8 -25 8 -14 0
-25 -4 -25 -10z"/>
<path d="M2188 2853 c18 -33 15 -56 -13 -97 -26 -39 -22 -45 13 -20 24 16 21
19 37 -31 7 -23 -15 -74 -37 -86 -11 -6 -21 -9 -22 -7 -2 2 -8 12 -14 23 -10
18 -11 17 -12 -13 0 -18 -7 -47 -16 -64 -19 -36 -11 -33 58 24 61 51 79 100
55 155 -9 21 -18 54 -22 74 -3 21 -13 43 -22 50 -15 13 -15 12 -5 -8z"/>
<path d="M1265 1771 c-3 -6 22 -142 28 -147 1 -1 16 -5 32 -8 29 -6 32 -4 63
59 17 36 32 70 32 75 0 6 -16 10 -35 10 -19 0 -35 -4 -35 -10 0 -5 -4 -10 -10
-10 -5 0 -10 6 -10 14 0 14 -57 28 -65 17z"/>
<path d="M1929 1751 c-2 -12 2 -67 7 -103 5 -34 9 -38 34 -38 56 0 90 12 90
31 0 14 -8 19 -27 20 -17 1 -21 3 -10 6 25 7 21 41 -5 46 -20 4 -19 4 5 6 20
1 27 6 27 22 0 18 -5 20 -60 18 -33 -1 -60 -5 -61 -8z"/>
<path d="M1492 1682 c-12 -38 -22 -73 -22 -78 0 -12 58 -6 66 7 7 12 44 11 44
-1 0 -5 16 -10 35 -10 19 0 35 3 35 7 0 4 -10 37 -22 75 l-22 68 -46 0 -46 0
-22 -68z"/>
<path d="M1720 1748 c0 -2 -3 -36 -5 -75 l-5 -73 40 0 c36 0 40 3 40 24 0 19
4 23 20 19 25 -7 60 22 60 49 0 36 -36 58 -95 58 -30 0 -55 -1 -55 -2z m77
-60 c-3 -8 -6 -5 -6 6 -1 11 2 17 5 13 3 -3 4 -12 1 -19z"/>
<path d="M2584 3227 c-3 -8 -4 -121 -2 -253 l3 -239 154 -3 c177 -3 233 8 295
59 114 95 114 294 -1 388 -59 49 -117 61 -289 61 -120 0 -156 -3 -160 -13z
m276 -187 c48 -26 48 -90 0 -110 -40 -17 -50 -6 -50 54 0 68 9 78 50 56z"/>
<path d="M3178 3074 c-5 -4 -8 -63 -8 -131 l0 -124 53 3 52 3 3 43 c4 61 35
50 48 -16 6 -31 8 -32 60 -32 50 0 54 2 54 23 0 12 -9 40 -20 61 -14 28 -17
44 -10 57 17 30 11 75 -11 95 -17 15 -40 20 -118 22 -53 2 -99 0 -103 -4z
m132 -74 c0 -11 -7 -20 -15 -20 -8 0 -15 9 -15 20 0 11 7 20 15 20 8 0 15 -9
15 -20z"/>
<path d="M3487 3074 c-4 -4 -7 -63 -7 -131 l0 -124 53 3 52 3 0 125 0 125 -45
3 c-25 2 -49 0 -53 -4z"/>
<path d="M3658 3074 c-5 -4 -8 -63 -8 -131 l0 -124 53 3 52 3 3 46 3 46 48 -5
c43 -4 50 -1 69 23 29 37 28 85 -2 114 -20 19 -39 23 -117 28 -52 3 -97 2
-101 -3z m138 -69 c7 -18 -14 -47 -27 -39 -5 3 -9 16 -9 30 0 27 27 34 36 9z"/>
<path d="M2432 2750 c0 -19 2 -27 5 -17 2 9 2 25 0 35 -3 9 -5 1 -5 -18z"/>
<path d="M3502 2732 c-8 -2 -12 -34 -12 -103 l0 -100 42 3 c35 2 43 7 48 27
l6 24 17 -26 c13 -21 26 -27 52 -27 l35 0 0 99 0 99 -37 5 c-47 5 -53 2 -53
-29 0 -31 -13 -31 -29 0 -13 24 -44 37 -69 28z"/>
<path d="M2750 2406 l0 -256 160 0 c135 0 167 3 213 20 100 37 160 126 160
235 -1 101 -49 180 -138 228 -36 19 -60 22 -217 25 l-178 4 0 -256z m298 42
c7 -7 12 -26 10 -47 -2 -28 -9 -39 -31 -49 -44 -21 -57 -10 -57 51 0 30 3 57
7 61 9 9 53 -2 71 -16z"/>
<path d="M4030 2452 c-66 -33 -89 -121 -47 -183 32 -48 60 -59 155 -59 l83 0
-3 68 -3 67 -48 3 c-42 3 -49 0 -54 -18 -7 -27 -37 -22 -41 7 -4 30 30 48 69
34 26 -9 31 -7 55 24 14 19 23 38 20 43 -7 12 -85 32 -123 32 -15 0 -44 -8
-63 -18z"/>
<path d="M3340 2334 l0 -125 53 3 52 3 3 43 c4 58 28 56 44 -3 l12 -45 112 0
c104 0 113 2 119 20 5 16 15 20 50 20 34 0 47 -5 55 -20 8 -16 21 -20 60 -20
34 0 50 4 50 13 -1 6 -18 62 -39 122 l-37 110 -84 0 -83 0 -40 -112 c-35 -100
-57 -138 -57 -100 0 7 -9 30 -20 52 -13 26 -17 42 -10 49 6 6 10 27 10 47 0
58 -23 69 -147 69 l-103 0 0 -126z m140 56 c0 -11 -7 -20 -15 -20 -8 0 -15 9
-15 20 0 11 7 20 15 20 8 0 15 -9 15 -20z m324 -47 c8 -21 -10 -41 -24 -27
-11 11 -3 44 10 44 4 0 11 -8 14 -17z"/>
<path d="M2640 1970 c17 -33 37 -60 45 -60 16 0 75 84 75 107 0 23 -18 14 -24
-12 -4 -14 -11 -25 -16 -25 -6 0 -15 11 -20 25 -8 21 -16 25 -50 25 l-40 0 30
-60z"/>
<path d="M2886 2008 c-18 -25 -21 -48 -6 -48 6 0 10 -5 10 -11 0 -9 -4 -9 -13
0 -11 8 -18 6 -32 -9 -19 -22 -13 -42 7 -22 15 15 48 16 48 2 0 -5 18 -10 41
-10 37 0 40 2 34 23 -13 44 -42 92 -58 95 -8 2 -22 -7 -31 -20z"/>
<path d="M3068 1970 l4 -60 34 0 c27 0 34 4 34 20 0 13 7 20 19 20 25 0 43 23
34 46 -10 28 -23 34 -78 34 l-50 0 3 -60z m97 20 c0 -7 -6 -15 -12 -17 -8 -3
-13 4 -13 17 0 13 5 20 13 18 6 -3 12 -11 12 -18z"/>
<path d="M3265 1970 l0 -60 32 0 c27 0 32 4 35 28 2 19 8 27 21 26 9 -1 17 2
17 7 0 5 -7 9 -15 9 -9 0 -15 9 -15 21 0 18 4 20 25 15 14 -4 25 -2 25 4 0 6
-27 10 -63 10 l-63 0 1 -60z"/>
<path d="M3547 2009 c-20 -27 -10 -58 22 -70 14 -5 33 -13 43 -19 25 -14 37 8
35 63 -2 37 -6 47 -19 47 -11 0 -15 -5 -12 -15 8 -19 -6 -19 -33 0 -20 14 -23
13 -36 -6z"/>
<path d="M3725 1970 l0 -60 38 0 c25 0 37 4 36 13 -3 23 1 37 11 37 6 0 10
-11 10 -25 0 -22 4 -25 38 -25 l37 0 0 60 0 60 -37 0 c-34 0 -38 -3 -38 -26 0
-16 -5 -24 -12 -21 -7 2 -13 14 -12 26 0 18 -5 21 -35 21 l-36 0 0 -60z"/>
<path d="M3981 2003 c-39 -49 -6 -93 69 -93 53 0 80 21 80 62 0 37 -29 58 -83
58 -37 0 -49 -5 -66 -27z m85 -7 c8 -33 2 -69 -13 -73 -16 -5 -27 39 -19 72 8
32 24 32 32 1z"/>
<path d="M4205 1970 l0 -60 36 0 36 0 -1 60 -1 60 -35 0 -35 0 0 -60z"/>
<path d="M4300 1991 c0 -23 4 -29 16 -24 17 6 15 44 -3 51 -9 2 -13 -7 -13
-27z"/>
<path d="M3369 1924 c-12 -14 -11 -16 5 -13 11 2 21 10 24 17 5 17 -13 15 -29
-4z"/>
<path d="M3220 1915 c7 -8 17 -15 22 -15 6 0 5 7 -2 15 -7 8 -17 15 -22 15 -6
0 -5 -7 2 -15z"/>
<path d="M3540 1920 c0 -5 5 -10 10 -10 6 0 10 5 10 10 0 6 -4 10 -10 10 -5 0
-10 -4 -10 -10z"/>
</g>
</svg>
